<svg xmlns="http://www.w3.org/2000/svg" viewBox="0 0 15.99 15.97"><defs><style>.a{fill:#f5f5f5;}</style></defs><title>in</title><path class="a" d="M8,3.89A4.1,4.1,0,1,0,12.09,8,4.08,4.08,0,0,0,8,3.89Zm0,6.77A2.68,2.68,0,1,1,10.66,8h0A2.68,2.68,0,0,1,8,10.66Zm5.22-6.94a1,1,0,1,1-1-1A1,1,0,0,1,13.21,3.72Zm2.78,1a4.77,4.77,0,0,0-1.31-3.35A4.72,4.72,0,0,0,11.29,0C10,0,6,0,4.68,0a4.72,4.72,0,0,0-3.34,1.3A4.72,4.72,0,0,0,0,4.68C0,6,0,10,0,11.29a4.75,4.75,0,0,0,1.29,3.34,4.7,4.7,0,0,0,3.35,1.29C6,16,10,16,11.29,15.92a4.66,4.66,0,0,0,3.34-1.29A4.74,4.74,0,0,0,16,11.29Zm-1.72,8a2.66,2.66,0,0,1-1.51,1.52A18.22,18.22,0,0,1,8,14.55a18.22,18.22,0,0,1-4.72-.32,2.77,2.77,0,0,1-1.52-1.52A18.08,18.08,0,0,1,1.44,8c0-1.16-.1-3.68.31-4.72A2.69,2.69,0,0,1,3.27,1.74,17.79,17.79,0,0,1,8,1.43a17.72,17.72,0,0,1,4.71.31,2.7,2.7,0,0,1,1.52,1.52c.42,1.07.32,3.57.32,4.73s.1,3.67-.32,4.72Z"/></svg>