<svg xmlns="http://www.w3.org/2000/svg" viewBox="0 0 26.93 16"><defs><style>.a{fill:#f5f5f5;}</style></defs><title>vk</title><path class="a" d="M26.32,1.09c.19-.63,0-1.09-.89-1.09H22.49a1.27,1.27,0,0,0-1.28.84,24.41,24.41,0,0,1-3.62,6c-.69.68-1,.91-1.38.91-.19,0-.47-.22-.47-.85V1.09c0-.75-.21-1.09-.83-1.09H10.28a.71.71,0,0,0-.75.67h0c0,.71,1.06.87,1.17,2.87V7.89c0,1-.17,1.12-.54,1.12-1,0-3.43-3.67-4.87-7.86C5,.33,4.71,0,4,0H1C.17,0,0,.4,0,.84c0,.78,1,4.65,4.65,9.77,2.44,3.5,5.87,5.39,9,5.39,1.87,0,2.1-.42,2.1-1.14,0-3.35-.16-3.66.77-3.66.44,0,1.19.22,2.94,1.91,2,2,2.33,2.89,3.45,2.89h2.94c.84,0,1.27-.42,1-1.25C26.29,13,22.5,9.41,22.33,9.18c-.43-.57-.31-.82,0-1.31,0,0,3.6-5.07,4-6.78Z"/></svg>