<svg xmlns="http://www.w3.org/2000/svg" viewBox="0 0 190.21 43.91"><defs><style>.cls-1{fill:#fff;}.cls-2{fill:#caba9f;}</style></defs><title>Ресурс 1</title><g id="Слой_2" data-name="Слой 2"><g id="Слой_1-2" data-name="Слой 1"><path class="cls-1" d="M41,15.58a1.47,1.47,0,0,1-.47-1.1A1.43,1.43,0,0,1,41,13.39,1.62,1.62,0,0,1,42.17,13a1.71,1.71,0,0,1,1.17.42,1.35,1.35,0,0,1,.47,1.05,1.55,1.55,0,0,1-.46,1.13,1.59,1.59,0,0,1-1.18.46A1.66,1.66,0,0,1,41,15.58Zm-.12,2.24h2.56V28.74H40.88Z"/><path class="cls-1" d="M57.45,28.15a3,3,0,0,1-1.09.55,5,5,0,0,1-1.36.19,3.84,3.84,0,0,1-2.78-.95,3.59,3.59,0,0,1-1-2.74V19.94h-1.8v-2h1.8V15.4h2.56v2.5h2.93v2H53.79v5.2a1.74,1.74,0,0,0,.39,1.22,1.46,1.46,0,0,0,1.13.42,2.24,2.24,0,0,0,1.43-.45Z"/><path class="cls-1" d="M71.52,18.85a4.47,4.47,0,0,1,1.28,3.49v6.4H70.38V27.41a3,3,0,0,1-1.33,1.1,5.32,5.32,0,0,1-2.1.38,5.12,5.12,0,0,1-2.15-.42,3.31,3.31,0,0,1-1.42-1.17,2.92,2.92,0,0,1-.5-1.69A2.88,2.88,0,0,1,64,23.25a5.46,5.46,0,0,1,3.45-.89h2.82v-.17a2.27,2.27,0,0,0-.68-1.76,3,3,0,0,0-2-.61,5.91,5.91,0,0,0-1.81.29,4.21,4.21,0,0,0-1.5.8L63.2,19a6.33,6.33,0,0,1,2.07-1,9.26,9.26,0,0,1,2.56-.35A5.32,5.32,0,0,1,71.52,18.85Zm-2.33,7.73a2.33,2.33,0,0,0,1-1.26V24.06H67.6c-1.47,0-2.21.48-2.21,1.45a1.32,1.32,0,0,0,.55,1.1,2.49,2.49,0,0,0,1.54.41A3.25,3.25,0,0,0,69.19,26.58Z"/><path class="cls-1" d="M80.17,13.56h2.55V28.74H80.17Z"/><path class="cls-1" d="M99.08,18.39a5,5,0,0,1,2,2,5.94,5.94,0,0,1,.71,2.93,6,6,0,0,1-.71,2.94,5,5,0,0,1-2,2,5.84,5.84,0,0,1-2.85.7,4.42,4.42,0,0,1-3.5-1.48v5.3H90.17V17.82h2.44v1.43a3.93,3.93,0,0,1,1.56-1.17,5.29,5.29,0,0,1,2.06-.39A5.84,5.84,0,0,1,99.08,18.39Zm-.82,7.37a3.42,3.42,0,0,0,.91-2.48,3.42,3.42,0,0,0-.91-2.48,3.1,3.1,0,0,0-2.32-.94,3.33,3.33,0,0,0-1.66.42,3,3,0,0,0-1.16,1.2,4,4,0,0,0,0,3.6,3,3,0,0,0,1.16,1.2,3.33,3.33,0,0,0,1.66.42A3.1,3.1,0,0,0,98.26,25.76Z"/><path class="cls-1" d="M118.53,24.1H110A3,3,0,0,0,111.13,26a3.9,3.9,0,0,0,2.37.71,4,4,0,0,0,3-1.19l1.38,1.58A4.77,4.77,0,0,1,116,28.44a7.36,7.36,0,0,1-5.71-.27,5.09,5.09,0,0,1-2.11-2,5.58,5.58,0,0,1-.75-2.89,5.71,5.71,0,0,1,.73-2.88,5.13,5.13,0,0,1,2-2,5.87,5.87,0,0,1,2.91-.72,5.74,5.74,0,0,1,2.85.71,5,5,0,0,1,2,2,6.05,6.05,0,0,1,.7,3C118.57,23.52,118.56,23.77,118.53,24.1ZM111,20.47a3,3,0,0,0-1,1.93h6.2a3,3,0,0,0-3.09-2.66A3.07,3.07,0,0,0,111,20.47Z"/><path class="cls-1" d="M125.12,13.56h2.56V28.74h-2.56Z"/><path class="cls-1" d="M135.12,13.56h2.56V28.74h-2.56Z"/><path class="cls-1" d="M153,18.85a4.47,4.47,0,0,1,1.28,3.49v6.4h-2.42V27.41a3,3,0,0,1-1.34,1.1,5.29,5.29,0,0,1-2.1.38,5.11,5.11,0,0,1-2.14-.42,3.34,3.34,0,0,1-1.43-1.17,3,3,0,0,1-.5-1.69,2.89,2.89,0,0,1,1.1-2.36,5.46,5.46,0,0,1,3.45-.89h2.82v-.17a2.24,2.24,0,0,0-.69-1.76,3,3,0,0,0-2-.61,5.86,5.86,0,0,0-1.81.29,4.26,4.26,0,0,0-1.51.8l-1-1.87a6.23,6.23,0,0,1,2.07-1,9.19,9.19,0,0,1,2.55-.35A5.35,5.35,0,0,1,153,18.85Zm-2.33,7.73a2.42,2.42,0,0,0,1.05-1.26V24.06h-2.64c-1.47,0-2.21.48-2.21,1.45a1.29,1.29,0,0,0,.55,1.1A2.49,2.49,0,0,0,149,27,3.25,3.25,0,0,0,150.67,26.58Z"/><path class="cls-1" d="M178.71,18.89a4.88,4.88,0,0,1,1.21,3.59v6.26h-2.56V22.81a3.15,3.15,0,0,0-.64-2.16,2.3,2.3,0,0,0-1.82-.73,2.66,2.66,0,0,0-2.06.85,3.48,3.48,0,0,0-.78,2.43v5.54H169.5V22.81a3.2,3.2,0,0,0-.63-2.16,2.32,2.32,0,0,0-1.83-.73,2.66,2.66,0,0,0-2.07.84,3.5,3.5,0,0,0-.77,2.44v5.54h-2.56V17.82h2.44v1.39a4,4,0,0,1,1.53-1.13,5.24,5.24,0,0,1,2-.39,5.06,5.06,0,0,1,2.18.46,3.58,3.58,0,0,1,1.5,1.36,4.57,4.57,0,0,1,1.74-1.34,5.64,5.64,0,0,1,2.35-.48A4.46,4.46,0,0,1,178.71,18.89Z"/><path class="cls-1" d="M187.4,15.58a1.47,1.47,0,0,1-.47-1.1,1.43,1.43,0,0,1,.47-1.09,1.64,1.64,0,0,1,1.17-.44,1.71,1.71,0,0,1,1.17.42,1.35,1.35,0,0,1,.47,1.05,1.55,1.55,0,0,1-.46,1.13,1.59,1.59,0,0,1-1.18.46A1.68,1.68,0,0,1,187.4,15.58Zm-.12,2.24h2.56V28.74h-2.56Z"/><path class="cls-2" d="M24,38.71l-4.16-2A65.57,65.57,0,0,1,18.15,22a65.6,65.6,0,0,1,1.66-14.8L24,5.2A2.73,2.73,0,0,0,22.49,0h-.13a2.74,2.74,0,0,0-2.29,1.88L18.68,6.22a13.53,13.53,0,0,1-5.91,1.42A13.49,13.49,0,0,1,6.86,6.22L5.46,1.91A2.72,2.72,0,0,0,3.18,0H3A2.74,2.74,0,0,0,0,2.77,2.75,2.75,0,0,0,1.57,5.2l4.15,2A65.51,65.51,0,0,1,7.38,22,65.57,65.57,0,0,1,5.72,36.75l-4.15,2A2.75,2.75,0,0,0,0,41.14a2.74,2.74,0,0,0,2.73,2.77l.31,0h.14A2.72,2.72,0,0,0,5.46,42l1.4-4.31a13.49,13.49,0,0,1,5.91-1.42,13.53,13.53,0,0,1,5.91,1.42L20.07,42a2.74,2.74,0,0,0,2.29,1.88h.13l.32,0A2.73,2.73,0,0,0,24,38.71ZM21.36,2.32a1.4,1.4,0,0,1,1.15-.95h.3a1.4,1.4,0,0,1,1.38,1.4A1.38,1.38,0,0,1,23.39,4l-3,1.43ZM2.14,4a1.39,1.39,0,0,1-.79-1.23,1.36,1.36,0,0,1,.45-1,1.41,1.41,0,0,1,.93-.36H3a1.41,1.41,0,0,1,1.16.95l1,3.09Zm2,37.61A1.4,1.4,0,0,1,3,42.54H2.89a1.38,1.38,0,0,1-1.54-1.39,1.39,1.39,0,0,1,.79-1.23l3-1.43Zm8.59-6.67A14.81,14.81,0,0,0,7.28,36,67.48,67.48,0,0,0,8.73,22,67.6,67.6,0,0,0,7.28,7.9,14.81,14.81,0,0,0,12.77,9,14.9,14.9,0,0,0,18.26,7.9,67.41,67.41,0,0,0,16.8,22a68.2,68.2,0,0,0,1.45,14A14.8,14.8,0,0,0,12.77,34.92Zm11,7.28a1.33,1.33,0,0,1-1.08.35h-.14a1.38,1.38,0,0,1-1.15-.95l-1-3.09,3,1.43a1.38,1.38,0,0,1,.8,1.23A1.36,1.36,0,0,1,23.73,42.2Z"/></g></g></svg>