<svg xmlns="http://www.w3.org/2000/svg" xmlns:xlink="http://www.w3.org/1999/xlink" viewBox="0 0 841.89 595.28"><defs><style>.a,.b{fill:none;}.b{stroke:#caba9f;stroke-linejoin:bevel;}.c{fill:url(#a);}</style><pattern id="a" width="78.11" height="78.11" patternTransform="translate(237.15)" patternUnits="userSpaceOnUse" viewBox="0 0 78.11 78.11"><rect class="a" width="78.11" height="78.11"/><path class="b" d="M18.63,58.69l3-9.21a4.13,4.13,0,0,1,3.47-2.84l.27,0A4.13,4.13,0,0,1,30,50.78h0a4.12,4.12,0,0,1-2.37,3.69Z"/><path class="b" d="M18.63,58.69l-3,9.21a4.13,4.13,0,0,1-3.47,2.84l-.27,0A4.16,4.16,0,0,1,7.3,66.6h0a4.15,4.15,0,0,1,2.38-3.69Z"/><path class="b" d="M58.69,18.63l-9.21-3a4.15,4.15,0,0,1-2.84-3.47l0-.27A4.14,4.14,0,0,1,50.78,7.3h0a4.15,4.15,0,0,1,3.69,2.38Z"/><path class="b" d="M58.69,18.63l9.21,3a4.12,4.12,0,0,1,2.84,3.47l0,.27A4.14,4.14,0,0,1,66.6,30h0a4.12,4.12,0,0,1-3.69-2.37Z"/></pattern></defs><title>pattern</title><rect class="c" width="841.89" height="595.28"/></svg>