<svg xmlns="http://www.w3.org/2000/svg" viewBox="0 0 512 512"><defs><style>.cls-1{fill:#fff;}</style></defs><title>Ресурс 1</title><g id="Слой_2" data-name="Слой 2"><g id="Capa_1" data-name="Capa 1"><path class="cls-1" d="M215.15,0a10.9,10.9,0,0,0,0,21.79c106.62,0,193.36,86.74,193.36,193.36S321.77,408.51,215.15,408.51,21.79,321.77,21.79,215.15a10.9,10.9,0,0,0-21.79,0C0,333.78,96.52,430.3,215.15,430.3S430.3,333.78,430.3,215.15,333.78,0,215.15,0Z"/><path class="cls-1" d="M326.34,104C265,42.64,165.27,42.64,104,104S42.65,265,104,326.34a10.89,10.89,0,0,0,15.4-15.4c-52.82-52.82-52.82-138.76,0-191.58s138.76-52.81,191.58,0,52.81,138.76,0,191.58a10.89,10.89,0,1,0,15.4,15.4C387.65,265,387.65,165.27,326.34,104Z"/><path class="cls-1" d="M508.81,493.4,372.64,357.23a10.9,10.9,0,0,0-15.41,15.41L493.4,508.81a10.9,10.9,0,1,0,15.41-15.41Z"/></g></g></svg>