<svg xmlns="http://www.w3.org/2000/svg" viewBox="0 0 512 490.53"><defs><style>.cls-1{fill:#fff;}</style></defs><title>Ресурс 2</title><g id="Слой_2" data-name="Слой 2"><g id="Capa_1" data-name="Capa 1"><path class="cls-1" d="M503.14,69.05a38.31,38.31,0,0,0-29.69-13.93H176.37a11,11,0,0,0,0,22H473.44a16.15,16.15,0,0,1,12.69,5.92,16.88,16.88,0,0,1,3.51,14L445.59,317.33a16.65,16.65,0,0,1-16.24,13.37h-245L83.16,26.12A39.19,39.19,0,0,0,45.93,0h0C31.54.5,17,.5,13.38.25A11,11,0,0,0,3.23,18.82c3.41,3.41,4.56,4.56,43.07,3.23a17,17,0,0,1,16,11.18l103.62,312a11,11,0,0,0,10.46,7.54h253c18.31,0,33.84-12.64,37.82-30.91l44.11-220.52A38.94,38.94,0,0,0,503.14,69.05Z"/><path class="cls-1" d="M424.39,413.38H223.77a16.82,16.82,0,0,1-15.46-11.24l-21.49-63.93a11,11,0,1,0-20.9,7l21.54,64.07a38.69,38.69,0,0,0,36.31,26.11H424.39a11,11,0,1,0,0-22Z"/><path class="cls-1" d="M231.49,413.37A38.58,38.58,0,1,0,270.07,452,38.62,38.62,0,0,0,231.49,413.37Zm0,55.12A16.54,16.54,0,1,1,248,452,16.56,16.56,0,0,1,231.49,468.49Z"/><path class="cls-1" d="M424.39,413.37A38.58,38.58,0,1,0,463,452,38.63,38.63,0,0,0,424.39,413.37Zm0,55.12A16.54,16.54,0,1,1,440.93,452,16.56,16.56,0,0,1,424.39,468.49Z"/></g></g></svg>