<svg xmlns="http://www.w3.org/2000/svg" viewBox="0 0 511.97 512"><defs><style>.a{fill:#f5f5f5;}</style></defs><title>user</title><path class="a" d="M511.72,251.06c-1.35-70.17-30.6-135.21-82.34-183.12-97.42-90.59-250-90.59-347.48,0C30.37,115.91,1.29,181,0,251.13A254.2,254.2,0,0,0,75.09,437a10.87,10.87,0,0,0,15.6-.22c3-3.16,6.7-7,8.16-8.37a11.69,11.69,0,0,0,1.44-1.21l24-24h78.24a21.74,21.74,0,0,0,20.35-13.91,21.06,21.06,0,0,0-5-23.2,110.86,110.86,0,0,1-32.74-78.86V193.51a34.65,34.65,0,0,1,10.42-25,35.62,35.62,0,0,1,25-10.42h70.23a34.65,34.65,0,0,1,25,10.42,35.6,35.6,0,0,1,10.42,25v93.64a111.18,111.18,0,0,1-33.07,79.21,22,22,0,0,0-3.67,23.71,21.47,21.47,0,0,0,19.86,13.05H392a10.89,10.89,0,1,0,0-21.78l-82.58.12a.94.94,0,0,1-.18-.51,132.44,132.44,0,0,0,38.66-93.8V193.51a57.5,57.5,0,0,0-16.8-40.37,56.74,56.74,0,0,0-40.36-16.8H220.53a57.54,57.54,0,0,0-40.37,16.8,56.78,56.78,0,0,0-16.8,40.37v93.64a132,132,0,0,0,39.2,94.19H119.81a10.89,10.89,0,0,0-7.7,3.19L85.05,411.59c-.69.57-1.41,1.23-2.19,2a232.36,232.36,0,0,1-61-162C23,187.33,49.58,127.79,96.74,83.89,185.85,1,325.44,1,414.58,83.9,462,127.77,488.72,187.28,490,251.48a232.2,232.2,0,0,1-68.6,170.07A10.89,10.89,0,0,0,436.74,437,253.77,253.77,0,0,0,511.72,251.06Z"/><path class="a" d="M511.8,245.94a10.74,10.74,0,0,0-11.26-10.5A10.88,10.88,0,0,0,490,246.7c2.26,64.6-21.12,125.69-65.85,172a232,232,0,0,1-168.27,71.51,10.89,10.89,0,1,0,0,21.78,253.6,253.6,0,0,0,183.94-78.16C488.72,383.24,514.27,316.51,511.8,245.94Z"/></svg>